<?xml version="1.0" encoding="UTF-8" standalone="no"?>
<!-- Created with Inkscape (http://www.inkscape.org/) -->

<svg
   xmlns:dc="http://purl.org/dc/elements/1.1/"
   xmlns:cc="http://creativecommons.org/ns#"
   xmlns:rdf="http://www.w3.org/1999/02/22-rdf-syntax-ns#"
   xmlns:svg="http://www.w3.org/2000/svg"
   xmlns="http://www.w3.org/2000/svg"
   xmlns:sodipodi="http://sodipodi.sourceforge.net/DTD/sodipodi-0.dtd"
   xmlns:inkscape="http://www.inkscape.org/namespaces/inkscape"
   width="297mm"
   height="150mm"
   viewBox="0 0 297 150"
   version="1.1"
   id="svg2277"
   inkscape:version="0.92.3 (2405546, 2018-03-11)"
   sodipodi:docname="logo_small.svg"
   inkscape:export-filename="/home/jencek/qgis3_profiles/profiles/default/python/plugins/qgis_patrac/icons/patrac.png"
   inkscape:export-xdpi="12.322227"
   inkscape:export-ydpi="12.322227">
  <defs
     id="defs2271" />
  <sodipodi:namedview
     id="base"
     pagecolor="#ffffff"
     bordercolor="#666666"
     borderopacity="1.0"
     inkscape:pageopacity="0.0"
     inkscape:pageshadow="2"
     inkscape:zoom="0.7"
     inkscape:cx="193.69176"
     inkscape:cy="311.76886"
     inkscape:document-units="mm"
     inkscape:current-layer="layer1"
     showgrid="false"
     height="150mm"
     inkscape:window-width="1920"
     inkscape:window-height="1031"
     inkscape:window-x="0"
     inkscape:window-y="25"
     inkscape:window-maximized="1" />
  <metadata
     id="metadata2274">
    <rdf:RDF>
      <cc:Work
         rdf:about="">
        <dc:format>image/svg+xml</dc:format>
        <dc:type
           rdf:resource="http://purl.org/dc/dcmitype/StillImage" />
        <dc:title></dc:title>
      </cc:Work>
    </rdf:RDF>
  </metadata>
  <g
     inkscape:label="Layer 1"
     inkscape:groupmode="layer"
     id="layer1"
     transform="translate(0,-147)">
    <g
       transform="matrix(0.05815032,0,0,0.05815032,68.102297,209.37621)"
       id="g1146"
       style="fill:#b3b3b3">
      <g
         id="g1144"
         style="fill:#b3b3b3">
        <path
           inkscape:connector-curvature="0"
           d="M 471.882,407.567 360.567,296.243 c -16.586,25.795 -38.536,47.734 -64.331,64.321 L 407.56,471.888 c 17.772,17.768 46.587,17.768 64.321,0 17.773,-17.739 17.773,-46.554 0.001,-64.321 z"
           id="path1138"
           style="fill:#b3b3b3" />
        <path
           inkscape:connector-curvature="0"
           d="M 363.909,181.955 C 363.909,81.473 282.44,0 181.956,0 81.474,0 0.001,81.473 0.001,181.955 c 0,100.482 81.473,181.951 181.955,181.951 100.484,0 181.953,-81.469 181.953,-181.951 z M 181.956,318.416 c -75.252,0 -136.465,-61.208 -136.465,-136.46 0,-75.252 61.213,-136.465 136.465,-136.465 75.25,0 136.468,61.213 136.468,136.465 0,75.252 -61.218,136.46 -136.468,136.46 z"
           id="path1140"
           style="fill:#b3b3b3" />
        <path
           inkscape:connector-curvature="0"
           d="m 75.817,181.955 h 30.322 c 0,-41.803 34.014,-75.814 75.816,-75.814 V 75.816 c -58.517,0 -106.138,47.621 -106.138,106.139 z"
           id="path1142"
           style="fill:#b3b3b3" />
      </g>
    </g>
    <g
       transform="matrix(0.26458333,0,0,0.26458333,139.25212,71.127165)"
       id="g1101"
       style="fill:#b3b3b3" />
    <g
       transform="matrix(0.26458333,0,0,0.26458333,139.25212,71.127165)"
       id="g1103"
       style="fill:#b3b3b3" />
    <g
       transform="matrix(0.26458333,0,0,0.26458333,139.25212,71.127165)"
       id="g1105"
       style="fill:#b3b3b3" />
    <g
       transform="matrix(0.26458333,0,0,0.26458333,139.25212,71.127165)"
       id="g1107"
       style="fill:#b3b3b3" />
    <g
       transform="matrix(0.26458333,0,0,0.26458333,139.25212,71.127165)"
       id="g1109"
       style="fill:#b3b3b3" />
    <g
       transform="matrix(0.26458333,0,0,0.26458333,139.25212,71.127165)"
       id="g1111"
       style="fill:#b3b3b3" />
    <g
       transform="matrix(0.26458333,0,0,0.26458333,139.25212,71.127165)"
       id="g1113"
       style="fill:#b3b3b3" />
    <g
       transform="matrix(0.26458333,0,0,0.26458333,139.25212,71.127165)"
       id="g1115"
       style="fill:#b3b3b3" />
    <g
       transform="matrix(0.26458333,0,0,0.26458333,139.25212,71.127165)"
       id="g1117"
       style="fill:#b3b3b3" />
    <g
       transform="matrix(0.26458333,0,0,0.26458333,139.25212,71.127165)"
       id="g1119"
       style="fill:#b3b3b3" />
    <g
       transform="matrix(0.26458333,0,0,0.26458333,139.25212,71.127165)"
       id="g1121"
       style="fill:#b3b3b3" />
    <g
       transform="matrix(0.26458333,0,0,0.26458333,139.25212,71.127165)"
       id="g1123"
       style="fill:#b3b3b3" />
    <g
       transform="matrix(0.26458333,0,0,0.26458333,139.25212,71.127165)"
       id="g1125"
       style="fill:#b3b3b3" />
    <g
       transform="matrix(0.26458333,0,0,0.26458333,139.25212,71.127165)"
       id="g1127"
       style="fill:#b3b3b3" />
    <g
       transform="matrix(0.26458333,0,0,0.26458333,139.25212,71.127165)"
       id="g1129"
       style="fill:#b3b3b3" />
    <g
       transform="matrix(0.26943842,0,0,0.26943842,30.57838,169.42923)"
       id="g932"
       style="fill:#501616">
      <path
         inkscape:connector-curvature="0"
         d="m 42.32,146.242 c 9.466,0 17.164,-10.334 17.164,-23.038 0,-12.704 -7.698,-23.038 -17.164,-23.038 -9.468,0 -17.166,10.334 -17.166,23.038 0,12.704 7.698,23.038 17.166,23.038 z"
         id="path912"
         style="fill:#501616" />
      <path
         inkscape:connector-curvature="0"
         d="m 83.236,146.242 c 9.456,0 17.164,-10.334 17.164,-23.038 0,-12.704 -7.707,-23.038 -17.164,-23.038 -9.468,0 -17.166,10.334 -17.166,23.038 0,12.704 7.698,23.038 17.166,23.038 z"
         id="path914"
         style="fill:#501616" />
      <path
         inkscape:connector-curvature="0"
         d="m 115.279,134.751 c -7.445,-1.466 -14.79,5.101 -16.732,14.963 -1.939,9.851 2.367,18.714 9.813,20.179 7.437,1.464 14.791,-5.103 16.73,-14.954 1.942,-9.861 -2.375,-18.724 -9.811,-20.188 z"
         id="path916"
         style="fill:#501616" />
      <path
         inkscape:connector-curvature="0"
         d="m 27.007,149.714 c -1.942,-9.862 -9.286,-16.429 -16.732,-14.963 -7.436,1.464 -11.753,10.326 -9.811,20.189 1.939,9.851 9.293,16.418 16.73,14.954 7.446,-1.466 11.752,-10.329 9.813,-20.18 z"
         id="path918"
         style="fill:#501616" />
      <path
         inkscape:connector-curvature="0"
         d="m 88.687,175.066 c -2.02,-12.482 -12.867,-22.045 -25.91,-22.045 -13.043,0 -23.891,9.563 -25.91,22.045 -9.284,4.05 -15.791,13.313 -15.791,24.071 0,14.475 11.776,26.251 26.251,26.251 5.772,0 11.112,-1.877 15.451,-5.047 4.338,3.17 9.678,5.047 15.451,5.047 14.475,0 26.251,-11.776 26.251,-26.251 -0.001,-10.758 -6.51,-20.021 -15.793,-24.071 z"
         id="path920"
         style="fill:#501616" />
      <path
         inkscape:connector-curvature="0"
         d="m 150.32,54.242 c 9.466,0 17.164,-10.334 17.164,-23.038 0,-12.704 -7.698,-23.038 -17.164,-23.038 -9.468,0 -17.166,10.334 -17.166,23.038 0,12.704 7.698,23.038 17.166,23.038 z"
         id="path922"
         style="fill:#501616" />
      <path
         inkscape:connector-curvature="0"
         d="m 191.236,54.242 c 9.456,0 17.164,-10.334 17.164,-23.038 0,-12.704 -7.707,-23.038 -17.164,-23.038 -9.468,0 -17.166,10.334 -17.166,23.038 0,12.704 7.698,23.038 17.166,23.038 z"
         id="path924"
         style="fill:#501616" />
      <path
         inkscape:connector-curvature="0"
         d="m 223.279,42.751 c -7.445,-1.466 -14.79,5.101 -16.732,14.963 -1.939,9.851 2.367,18.714 9.813,20.179 7.437,1.464 14.791,-5.103 16.73,-14.954 1.942,-9.861 -2.375,-18.724 -9.811,-20.188 z"
         id="path926"
         style="fill:#501616" />
      <path
         inkscape:connector-curvature="0"
         d="m 125.194,77.894 c 7.445,-1.466 11.752,-10.329 9.813,-20.179 -1.942,-9.862 -9.286,-16.429 -16.732,-14.963 -7.436,1.464 -11.753,10.326 -9.811,20.189 1.94,9.85 9.294,16.417 16.73,14.953 z"
         id="path928"
         style="fill:#501616" />
      <path
         inkscape:connector-curvature="0"
         d="m 196.687,83.066 c -2.02,-12.482 -12.867,-22.045 -25.91,-22.045 -13.043,0 -23.891,9.563 -25.91,22.045 -9.284,4.05 -15.791,13.313 -15.791,24.071 0,14.475 11.776,26.251 26.251,26.251 5.772,0 11.112,-1.877 15.451,-5.047 4.338,3.17 9.678,5.047 15.451,5.047 14.475,0 26.251,-11.776 26.251,-26.251 -10e-4,-10.758 -6.51,-20.021 -15.793,-24.071 z"
         id="path930"
         style="fill:#501616" />
    </g>
    <g
       transform="matrix(0.26458333,0,0,0.26458333,111.46528,172.87067)"
       id="g934"
       style="fill:#b3b3b3" />
    <g
       transform="matrix(0.26458333,0,0,0.26458333,111.46528,172.87067)"
       id="g936"
       style="fill:#b3b3b3" />
    <g
       transform="matrix(0.26458333,0,0,0.26458333,111.46528,172.87067)"
       id="g938"
       style="fill:#b3b3b3" />
    <g
       transform="matrix(0.26458333,0,0,0.26458333,111.46528,172.87067)"
       id="g940"
       style="fill:#b3b3b3" />
    <g
       transform="matrix(0.26458333,0,0,0.26458333,111.46528,172.87067)"
       id="g942"
       style="fill:#b3b3b3" />
    <g
       transform="matrix(0.26458333,0,0,0.26458333,111.46528,172.87067)"
       id="g944"
       style="fill:#b3b3b3" />
    <g
       transform="matrix(0.26458333,0,0,0.26458333,111.46528,172.87067)"
       id="g946"
       style="fill:#b3b3b3" />
    <g
       transform="matrix(0.26458333,0,0,0.26458333,111.46528,172.87067)"
       id="g948"
       style="fill:#b3b3b3" />
    <g
       transform="matrix(0.26458333,0,0,0.26458333,111.46528,172.87067)"
       id="g950"
       style="fill:#b3b3b3" />
    <g
       transform="matrix(0.26458333,0,0,0.26458333,111.46528,172.87067)"
       id="g952"
       style="fill:#b3b3b3" />
    <g
       transform="matrix(0.26458333,0,0,0.26458333,111.46528,172.87067)"
       id="g954"
       style="fill:#b3b3b3" />
    <g
       transform="matrix(0.26458333,0,0,0.26458333,111.46528,172.87067)"
       id="g956"
       style="fill:#b3b3b3" />
    <g
       transform="matrix(0.26458333,0,0,0.26458333,111.46528,172.87067)"
       id="g958"
       style="fill:#b3b3b3" />
    <g
       transform="matrix(0.26458333,0,0,0.26458333,111.46528,172.87067)"
       id="g960"
       style="fill:#b3b3b3" />
    <g
       transform="matrix(0.26458333,0,0,0.26458333,111.46528,172.87067)"
       id="g962"
       style="fill:#b3b3b3" />
  </g>
</svg>
