<?xml version="1.0" encoding="UTF-8" standalone="no"?>
<!-- Created with Inkscape (http://www.inkscape.org/) -->

<svg
   xmlns:dc="http://purl.org/dc/elements/1.1/"
   xmlns:cc="http://creativecommons.org/ns#"
   xmlns:rdf="http://www.w3.org/1999/02/22-rdf-syntax-ns#"
   xmlns:svg="http://www.w3.org/2000/svg"
   xmlns="http://www.w3.org/2000/svg"
   xmlns:sodipodi="http://sodipodi.sourceforge.net/DTD/sodipodi-0.dtd"
   xmlns:inkscape="http://www.inkscape.org/namespaces/inkscape"
   width="297mm"
   height="150mm"
   viewBox="0 0 297 150"
   version="1.1"
   id="svg2277"
   inkscape:version="0.92.3 (2405546, 2018-03-11)"
   sodipodi:docname="logo.svg">
  <defs
     id="defs2271" />
  <sodipodi:namedview
     id="base"
     pagecolor="#ffffff"
     bordercolor="#666666"
     borderopacity="1.0"
     inkscape:pageopacity="0.0"
     inkscape:pageshadow="2"
     inkscape:zoom="0.35"
     inkscape:cx="-178.57143"
     inkscape:cy="560"
     inkscape:document-units="mm"
     inkscape:current-layer="layer1"
     showgrid="false"
     height="150mm"
     inkscape:window-width="1920"
     inkscape:window-height="1027"
     inkscape:window-x="0"
     inkscape:window-y="0"
     inkscape:window-maximized="1" />
  <metadata
     id="metadata2274">
    <rdf:RDF>
      <cc:Work
         rdf:about="">
        <dc:format>image/svg+xml</dc:format>
        <dc:type
           rdf:resource="http://purl.org/dc/dcmitype/StillImage" />
        <dc:title></dc:title>
      </cc:Work>
    </rdf:RDF>
  </metadata>
  <g
     inkscape:label="Layer 1"
     inkscape:groupmode="layer"
     id="layer1"
     transform="translate(0,-147)">
    <g
       transform="matrix(0.26458333,0,0,0.26458333,7.6259891,157.21499)"
       id="g1146"
       style="fill:#b3b3b3">
      <g
         id="g1144"
         style="fill:#b3b3b3">
        <path
           inkscape:connector-curvature="0"
           d="M 471.882,407.567 360.567,296.243 c -16.586,25.795 -38.536,47.734 -64.331,64.321 L 407.56,471.888 c 17.772,17.768 46.587,17.768 64.321,0 17.773,-17.739 17.773,-46.554 0.001,-64.321 z"
           id="path1138"
           style="fill:#b3b3b3" />
        <path
           inkscape:connector-curvature="0"
           d="M 363.909,181.955 C 363.909,81.473 282.44,0 181.956,0 81.474,0 0.001,81.473 0.001,181.955 c 0,100.482 81.473,181.951 181.955,181.951 100.484,0 181.953,-81.469 181.953,-181.951 z M 181.956,318.416 c -75.252,0 -136.465,-61.208 -136.465,-136.46 0,-75.252 61.213,-136.465 136.465,-136.465 75.25,0 136.468,61.213 136.468,136.465 0,75.252 -61.218,136.46 -136.468,136.46 z"
           id="path1140"
           style="fill:#b3b3b3" />
        <path
           inkscape:connector-curvature="0"
           d="m 75.817,181.955 h 30.322 c 0,-41.803 34.014,-75.814 75.816,-75.814 V 75.816 c -58.517,0 -106.138,47.621 -106.138,106.139 z"
           id="path1142"
           style="fill:#b3b3b3" />
      </g>
    </g>
    <g
       transform="matrix(7.2005106,0,0,7.2005106,174.4099,166.07205)"
       id="g1099"
       style="fill:#b3b3b3">
      <path
         inkscape:connector-curvature="0"
         style="fill:#b3b3b3"
         d="M 7.039,11.326 C 7.126,12.834 6.812,13.431 5.763,13.599 4.713,13.767 3.697,12.863 3.491,11.578 3.397,10.988 3.303,9.789 3.183,9.264 L 2.282,6.728 C 2.23,6.504 1.636,5.436 1.542,4.971 1.351,4.025 1.961,3.105 2.905,2.913 2.905,2.913 4.309,2.63 4.556,2.58 4.803,2.529 5.54,2.481 5.54,2.481 c 1.012,0 1.5,0.523 1.5,1.535 0,0.587 -1.04,1.49 -1.04,1.49 0,0 -1.472,1.417 -0.957,2.47 0.513,1.053 1.685,1.357 1.996,3.35 z M 5.864,2.222 C 6.282,2.222 6.622,1.723 6.622,1.11 6.622,0.497 6.282,0 5.864,0 5.443,0 5.103,0.498 5.103,1.11 5.104,1.723 5.443,2.222 5.864,2.222 Z M 4.249,2.109 C 4.518,2.071 4.691,1.721 4.634,1.327 4.578,0.933 4.314,0.645 4.045,0.684 3.777,0.722 3.604,1.072 3.66,1.466 3.716,1.859 3.98,2.147 4.249,2.109 Z M 3.098,2.421 C 3.293,2.375 3.396,2.107 3.329,1.823 3.261,1.539 3.049,1.345 2.855,1.391 2.661,1.437 2.557,1.704 2.625,1.989 2.692,2.273 2.903,2.467 3.098,2.421 Z M 2.167,3.031 C 2.337,2.964 2.395,2.707 2.296,2.458 2.197,2.209 1.98,2.061 1.81,2.129 1.64,2.197 1.582,2.453 1.681,2.702 1.78,2.951 1.997,3.098 2.167,3.031 Z M 1.153,3.103 C 1.04,3.147 1.001,3.317 1.066,3.483 1.131,3.648 1.276,3.746 1.389,3.702 1.502,3.658 1.541,3.487 1.476,3.322 1.41,3.156 1.266,3.058 1.153,3.103 Z m 11.938,2.405 c 0,0 -1.373,-0.403 -1.615,-0.473 C 11.234,4.963 10.504,4.852 10.504,4.852 9.495,4.766 8.965,5.246 8.879,6.254 8.827,6.837 9.786,7.826 9.786,7.826 c 0,0 1.346,1.538 0.742,2.542 -0.602,1.004 -1.795,1.209 -2.274,3.166 -0.216,1.493 0.047,2.116 1.075,2.375 1.033,0.258 2.121,-0.558 2.438,-1.818 0.145,-0.582 0.34,-1.768 0.506,-2.281 l 1.114,-2.449 c 0.071,-0.22 0.754,-1.232 0.888,-1.687 0.27,-0.925 -0.26,-1.895 -1.184,-2.166 z M 10.202,4.564 C 10.62,4.6 11.001,4.134 11.054,3.522 11.107,2.91 10.811,2.386 10.392,2.35 9.974,2.314 9.593,2.78 9.54,3.392 9.487,4.004 9.784,4.529 10.202,4.564 Z M 11.821,4.59 C 12.085,4.651 12.372,4.386 12.462,4 12.55,3.613 12.409,3.25 12.145,3.189 c -0.264,-0.061 -0.551,0.204 -0.64,0.59 -0.09,0.387 0.053,0.75 0.316,0.811 z m 1.12,0.409 C 13.13,5.061 13.357,4.887 13.449,4.61 13.541,4.333 13.461,4.057 13.272,3.995 13.083,3.933 12.855,4.107 12.763,4.384 12.671,4.661 12.751,4.937 12.941,4.999 Z m 1.308,-0.178 c -0.165,-0.082 -0.395,0.045 -0.514,0.285 -0.119,0.24 -0.083,0.5 0.082,0.582 0.164,0.082 0.395,-0.045 0.514,-0.285 0.119,-0.24 0.082,-0.501 -0.082,-0.582 z m 0.572,1.024 c -0.109,-0.054 -0.262,0.031 -0.342,0.19 -0.078,0.159 -0.055,0.333 0.055,0.387 0.109,0.055 0.262,-0.03 0.342,-0.19 C 14.955,6.073 14.931,5.9 14.821,5.845 Z"
         id="path1097" />
    </g>
    <g
       transform="matrix(0.26458333,0,0,0.26458333,139.25212,71.127165)"
       id="g1101"
       style="fill:#b3b3b3" />
    <g
       transform="matrix(0.26458333,0,0,0.26458333,139.25212,71.127165)"
       id="g1103"
       style="fill:#b3b3b3" />
    <g
       transform="matrix(0.26458333,0,0,0.26458333,139.25212,71.127165)"
       id="g1105"
       style="fill:#b3b3b3" />
    <g
       transform="matrix(0.26458333,0,0,0.26458333,139.25212,71.127165)"
       id="g1107"
       style="fill:#b3b3b3" />
    <g
       transform="matrix(0.26458333,0,0,0.26458333,139.25212,71.127165)"
       id="g1109"
       style="fill:#b3b3b3" />
    <g
       transform="matrix(0.26458333,0,0,0.26458333,139.25212,71.127165)"
       id="g1111"
       style="fill:#b3b3b3" />
    <g
       transform="matrix(0.26458333,0,0,0.26458333,139.25212,71.127165)"
       id="g1113"
       style="fill:#b3b3b3" />
    <g
       transform="matrix(0.26458333,0,0,0.26458333,139.25212,71.127165)"
       id="g1115"
       style="fill:#b3b3b3" />
    <g
       transform="matrix(0.26458333,0,0,0.26458333,139.25212,71.127165)"
       id="g1117"
       style="fill:#b3b3b3" />
    <g
       transform="matrix(0.26458333,0,0,0.26458333,139.25212,71.127165)"
       id="g1119"
       style="fill:#b3b3b3" />
    <g
       transform="matrix(0.26458333,0,0,0.26458333,139.25212,71.127165)"
       id="g1121"
       style="fill:#b3b3b3" />
    <g
       transform="matrix(0.26458333,0,0,0.26458333,139.25212,71.127165)"
       id="g1123"
       style="fill:#b3b3b3" />
    <g
       transform="matrix(0.26458333,0,0,0.26458333,139.25212,71.127165)"
       id="g1125"
       style="fill:#b3b3b3" />
    <g
       transform="matrix(0.26458333,0,0,0.26458333,139.25212,71.127165)"
       id="g1127"
       style="fill:#b3b3b3" />
    <g
       transform="matrix(0.26458333,0,0,0.26458333,139.25212,71.127165)"
       id="g1129"
       style="fill:#b3b3b3" />
    <g
       transform="matrix(0.26458333,0,0,0.26458333,111.46528,172.87067)"
       id="g932"
       style="fill:#b3b3b3">
      <path
         inkscape:connector-curvature="0"
         d="m 42.32,146.242 c 9.466,0 17.164,-10.334 17.164,-23.038 0,-12.704 -7.698,-23.038 -17.164,-23.038 -9.468,0 -17.166,10.334 -17.166,23.038 0,12.704 7.698,23.038 17.166,23.038 z"
         id="path912"
         style="fill:#b3b3b3" />
      <path
         inkscape:connector-curvature="0"
         d="m 83.236,146.242 c 9.456,0 17.164,-10.334 17.164,-23.038 0,-12.704 -7.707,-23.038 -17.164,-23.038 -9.468,0 -17.166,10.334 -17.166,23.038 0,12.704 7.698,23.038 17.166,23.038 z"
         id="path914"
         style="fill:#b3b3b3" />
      <path
         inkscape:connector-curvature="0"
         d="m 115.279,134.751 c -7.445,-1.466 -14.79,5.101 -16.732,14.963 -1.939,9.851 2.367,18.714 9.813,20.179 7.437,1.464 14.791,-5.103 16.73,-14.954 1.942,-9.861 -2.375,-18.724 -9.811,-20.188 z"
         id="path916"
         style="fill:#b3b3b3" />
      <path
         inkscape:connector-curvature="0"
         d="m 27.007,149.714 c -1.942,-9.862 -9.286,-16.429 -16.732,-14.963 -7.436,1.464 -11.753,10.326 -9.811,20.189 1.939,9.851 9.293,16.418 16.73,14.954 7.446,-1.466 11.752,-10.329 9.813,-20.18 z"
         id="path918"
         style="fill:#b3b3b3" />
      <path
         inkscape:connector-curvature="0"
         d="m 88.687,175.066 c -2.02,-12.482 -12.867,-22.045 -25.91,-22.045 -13.043,0 -23.891,9.563 -25.91,22.045 -9.284,4.05 -15.791,13.313 -15.791,24.071 0,14.475 11.776,26.251 26.251,26.251 5.772,0 11.112,-1.877 15.451,-5.047 4.338,3.17 9.678,5.047 15.451,5.047 14.475,0 26.251,-11.776 26.251,-26.251 -0.001,-10.758 -6.51,-20.021 -15.793,-24.071 z"
         id="path920"
         style="fill:#b3b3b3" />
      <path
         inkscape:connector-curvature="0"
         d="m 150.32,54.242 c 9.466,0 17.164,-10.334 17.164,-23.038 0,-12.704 -7.698,-23.038 -17.164,-23.038 -9.468,0 -17.166,10.334 -17.166,23.038 0,12.704 7.698,23.038 17.166,23.038 z"
         id="path922"
         style="fill:#b3b3b3" />
      <path
         inkscape:connector-curvature="0"
         d="m 191.236,54.242 c 9.456,0 17.164,-10.334 17.164,-23.038 0,-12.704 -7.707,-23.038 -17.164,-23.038 -9.468,0 -17.166,10.334 -17.166,23.038 0,12.704 7.698,23.038 17.166,23.038 z"
         id="path924"
         style="fill:#b3b3b3" />
      <path
         inkscape:connector-curvature="0"
         d="m 223.279,42.751 c -7.445,-1.466 -14.79,5.101 -16.732,14.963 -1.939,9.851 2.367,18.714 9.813,20.179 7.437,1.464 14.791,-5.103 16.73,-14.954 1.942,-9.861 -2.375,-18.724 -9.811,-20.188 z"
         id="path926"
         style="fill:#b3b3b3" />
      <path
         inkscape:connector-curvature="0"
         d="m 125.194,77.894 c 7.445,-1.466 11.752,-10.329 9.813,-20.179 -1.942,-9.862 -9.286,-16.429 -16.732,-14.963 -7.436,1.464 -11.753,10.326 -9.811,20.189 1.94,9.85 9.294,16.417 16.73,14.953 z"
         id="path928"
         style="fill:#b3b3b3" />
      <path
         inkscape:connector-curvature="0"
         d="m 196.687,83.066 c -2.02,-12.482 -12.867,-22.045 -25.91,-22.045 -13.043,0 -23.891,9.563 -25.91,22.045 -9.284,4.05 -15.791,13.313 -15.791,24.071 0,14.475 11.776,26.251 26.251,26.251 5.772,0 11.112,-1.877 15.451,-5.047 4.338,3.17 9.678,5.047 15.451,5.047 14.475,0 26.251,-11.776 26.251,-26.251 -10e-4,-10.758 -6.51,-20.021 -15.793,-24.071 z"
         id="path930"
         style="fill:#b3b3b3" />
    </g>
    <g
       transform="matrix(0.26458333,0,0,0.26458333,111.46528,172.87067)"
       id="g934"
       style="fill:#b3b3b3" />
    <g
       transform="matrix(0.26458333,0,0,0.26458333,111.46528,172.87067)"
       id="g936"
       style="fill:#b3b3b3" />
    <g
       transform="matrix(0.26458333,0,0,0.26458333,111.46528,172.87067)"
       id="g938"
       style="fill:#b3b3b3" />
    <g
       transform="matrix(0.26458333,0,0,0.26458333,111.46528,172.87067)"
       id="g940"
       style="fill:#b3b3b3" />
    <g
       transform="matrix(0.26458333,0,0,0.26458333,111.46528,172.87067)"
       id="g942"
       style="fill:#b3b3b3" />
    <g
       transform="matrix(0.26458333,0,0,0.26458333,111.46528,172.87067)"
       id="g944"
       style="fill:#b3b3b3" />
    <g
       transform="matrix(0.26458333,0,0,0.26458333,111.46528,172.87067)"
       id="g946"
       style="fill:#b3b3b3" />
    <g
       transform="matrix(0.26458333,0,0,0.26458333,111.46528,172.87067)"
       id="g948"
       style="fill:#b3b3b3" />
    <g
       transform="matrix(0.26458333,0,0,0.26458333,111.46528,172.87067)"
       id="g950"
       style="fill:#b3b3b3" />
    <g
       transform="matrix(0.26458333,0,0,0.26458333,111.46528,172.87067)"
       id="g952"
       style="fill:#b3b3b3" />
    <g
       transform="matrix(0.26458333,0,0,0.26458333,111.46528,172.87067)"
       id="g954"
       style="fill:#b3b3b3" />
    <g
       transform="matrix(0.26458333,0,0,0.26458333,111.46528,172.87067)"
       id="g956"
       style="fill:#b3b3b3" />
    <g
       transform="matrix(0.26458333,0,0,0.26458333,111.46528,172.87067)"
       id="g958"
       style="fill:#b3b3b3" />
    <g
       transform="matrix(0.26458333,0,0,0.26458333,111.46528,172.87067)"
       id="g960"
       style="fill:#b3b3b3" />
    <g
       transform="matrix(0.26458333,0,0,0.26458333,111.46528,172.87067)"
       id="g962"
       style="fill:#b3b3b3" />
  </g>
</svg>
